<?xml version="1.0" encoding="utf-8"?>
<!-- Created by sK1 2.0rc5 (https://sk1project.net/) -->
<svg xmlns="http://www.w3.org/2000/svg" height="40.0px" width="200.0px" version="1.1" xmlns:xlink="http://www.w3.org/1999/xlink" id="d761c2e1-f528-11ef-907b-e0be037d5ab4">

<g>
	<path style="fill:#465fff;" d="M 5.0035,11.9937 C 5.0035,6.7135 9.425,2.4331 14.8792,2.4331 L 32.6552,2.4331 C 38.1093,2.4331 42.5308,6.7135 42.5308,11.9937 L 42.5308,29.2028 C 42.5308,34.483 38.1093,38.7635 32.6552,38.7635 L 14.8792,38.7635 C 9.425,38.7635 5.0035,34.483 5.0035,29.2028 L 5.0035,11.9937 Z" />
	<path style="fill:#ffffff;" d="M 14.8434,11.9943 C 14.8434,10.9382 15.7277,10.0821 16.8185,10.0821 17.9094,10.0821 18.7937,10.9382 18.7937,11.9943 L 18.7937,29.2033 C 18.7937,30.2594 17.9094,31.1155 16.8185,31.1155 15.7277,31.1155 14.8434,30.2594 14.8434,29.2033 L 14.8434,11.9943 Z" />
	<path style="fill-opacity:0.9;fill:#ffffff;" d="M 22.2531,19.641 C 22.2531,18.585 23.1374,17.7289 24.2282,17.7289 25.319,17.7289 26.2034,18.585 26.2034,19.641 L 26.2034,29.2017 C 26.2034,30.2577 25.319,31.1138 24.2282,31.1138 23.1374,31.1138 22.2531,30.2577 22.2531,29.2017 L 22.2531,19.641 Z" />
	<path style="fill-opacity:0.7;fill:#ffffff;" d="M 29.6559,14.8603 C 29.6559,13.8042 30.5403,12.9482 31.631,12.9482 32.7219,12.9482 33.6062,13.8042 33.6062,14.8603 L 33.6062,29.2012 C 33.6062,30.2572 32.7219,31.1133 31.631,31.1133 30.5403,31.1133 29.6559,30.2572 29.6559,29.2012 L 29.6559,14.8603 Z" />
	<path style="fill:#ffffff;" d="M 75.8521,33.5 C 78.5984,33.5 80.9881,32.2516 81.7371,30.4326 L 82.0581,33.0363 85.875,33.0363 85.875,22.3362 C 85.875,17.4498 82.9498,14.8818 78.2061,14.8818 73.4267,14.8818 70.288,17.3785 70.288,21.1948 L 73.9974,21.1948 C 73.9974,19.3402 75.4241,18.2701 77.9921,18.2701 80.2035,18.2701 81.6301,19.2332 81.6301,21.6229 L 81.6301,22.0152 76.3514,22.4075 C 72.1784,22.7285 69.8243,24.7616 69.8243,28.0073 69.8243,31.3243 72.107,33.5 75.8521,33.5 Z M 77.2788,30.2186 C 75.3171,30.2186 74.247,29.4339 74.247,27.8289 74.247,26.4022 75.2814,25.5106 77.9921,25.2609 L 81.6658,24.9756 81.6658,25.9029 C 81.6658,28.6136 79.9538,30.2186 77.2788,30.2186 Z" />
	<path style="fill:#ffffff;" d="M 92.325,11.8857 C 93.752,11.8857 94.929,10.7087 94.929,9.2464 94.929,7.784 93.752,6.6427 92.325,6.6427 90.827,6.6427 89.65,7.784 89.65,9.2464 89.65,10.7087 90.827,11.8857 92.325,11.8857 Z M 90.149,33.0363 L 94.501,33.0363 94.501,15.4168 90.149,15.4168 90.149,33.0363 Z" />
	<path style="fill:#ffffff;" d="M 103.383,33.0363 L 103.383,6.5 99.068,6.5 99.068,33.0363 103.383,33.0363 Z" />
	<path style="fill:#ffffff;" d="M 110.837,33.0363 L 112.941,27.0086 122.679,27.0086 124.783,33.0363 129.598,33.0363 120.182,6.9637 115.509,6.9637 106.093,33.0363 110.837,33.0363 Z M 117.257,14.7391 C 117.507,14.0258 117.721,13.2411 117.828,12.7417 117.899,13.2768 118.149,14.0614 118.363,14.7391 L 121.359,23.1565 114.297,23.1565 117.257,14.7391 Z" />
	<path style="fill:#ffffff;" d="M 138.665,33.5 C 141.34,33.5 143.622,32.323 144.692,30.29 L 144.978,33.0363 148.972,33.0363 148.972,6.5 144.657,6.5 144.657,17.6638 C 143.551,15.9161 141.375,14.8818 138.914,14.8818 133.6,14.8818 130.39,18.8052 130.39,24.2979 130.39,29.755 133.564,33.5 138.665,33.5 Z M 139.628,29.5053 C 136.596,29.5053 134.741,27.2939 134.741,24.1552 134.741,21.0165 136.596,18.7695 139.628,18.7695 142.659,18.7695 144.621,20.9808 144.621,24.1552 144.621,27.3296 142.659,29.5053 139.628,29.5053 Z" />
	<path style="fill:#ffffff;" d="M 187.24,11.8857 C 188.667,11.8857 189.844,10.7087 189.844,9.2464 189.844,7.784 188.667,6.6427 187.24,6.6427 185.742,6.6427 184.565,7.784 184.565,9.2464 184.565,10.7087 185.742,11.8857 187.24,11.8857 Z M 185.064,33.0363 L 189.416,33.0363 189.416,15.4168 185.064,15.4168 185.064,33.0363 Z" />
	<path style="fill:#ffffff;" d="M 198.263,33.0363 L 198.263,23.5489 C 198.263,20.6955 199.903,18.8408 202.578,18.8408 204.825,18.8408 206.288,20.2675 206.288,23.2279 L 206.288,33.0363 210.639,33.0363 210.639,22.1935 C 210.639,17.6281 208.356,14.8818 203.934,14.8818 201.544,14.8818 199.404,15.9161 198.298,17.6995 L 197.942,15.4168 193.911,15.4168 193.911,33.0363 198.263,33.0363 Z" />
	<g>
		<g>
			<path style="fill:#2d2c2b;" d="M 82.0529,19.804 C 82.0758,22.2996 81.57,24.5649 80.5357,26.5998 79.5011,28.6352 78.1018,30.24 76.338,31.4141 74.9033,32.3235 73.4442,32.9452 71.96,33.2796 70.4755,33.6142 68.5782,33.8134 66.2684,33.8774 L 59.7011,34.0592 59.4498,6.7385 65.9402,6.5588 C 68.6205,6.4848 70.7249,6.6194 72.2541,6.9623 73.7827,7.3057 75.0862,7.7986 76.1646,8.4415 78.0128,9.5527 79.4502,11.0575 80.4768,12.9557 81.5028,14.8546 82.0284,17.1373 82.0529,19.804 Z M 78.0858,19.8588 C 78.0666,17.7648 77.6874,15.9884 76.949,14.5292 76.2101,13.0703 75.1246,11.9465 73.6927,11.1577 72.6824,10.601 71.604,10.2108 70.4571,9.9867 69.3099,9.7631 67.8841,9.6747 66.1794,9.7216 L 63.2986,9.8014 63.4916,30.7848 66.3724,30.705 C 68.0509,30.6586 69.5189,30.4903 70.7761,30.1996 72.0332,29.9095 73.18,29.4029 74.2166,28.6797 75.5186,27.7913 76.4938,26.6286 77.1424,25.1916 77.7907,23.7551 78.1053,21.9773 78.0858,19.8588 Z" />
			<path style="fill:#2d2c2b;" d="M 97.7778,27.9602 L 97.7264,22.3711 C 96.8677,22.4678 95.7817,22.5977 94.469,22.7606 93.1557,22.9241 92.0969,23.1317 91.2918,23.3834 90.3326,23.6876 89.5414,24.1351 88.9186,24.7263 88.2955,25.3177 87.9886,26.1268 87.9984,27.1536 88.0087,28.3135 88.3631,29.1797 89.0612,29.7522 89.759,30.3252 90.7744,30.5931 92.1074,30.556 93.2489,30.5246 94.2791,30.2609 95.1975,29.7644 96.116,29.2685 96.9761,28.6669 97.7778,27.9602 Z M 97.8041,30.8186 C 97.5122,31.0344 97.1223,31.3355 96.6345,31.7215 96.1467,32.1078 95.6737,32.4172 95.216,32.65 94.5805,32.9851 93.967,33.2464 93.3749,33.4339 92.7825,33.6211 91.9504,33.7295 90.8787,33.7594 89.9978,33.7835 89.1602,33.6483 88.3659,33.353 87.5714,33.0578 86.8714,32.632 86.2665,32.0757 85.6863,31.5305 85.2203,30.8512 84.8684,30.0378 84.5159,29.2243 84.3358,28.3605 84.3274,27.4456 84.3144,26.031 84.616,24.8179 85.2324,23.8065 85.8488,22.7954 86.8306,21.9784 88.1781,21.3556 89.3735,20.7981 90.7873,20.3961 92.4199,20.1492 94.0518,19.9029 95.8122,19.7048 97.7005,19.5545 L 97.6943,18.8867 C 97.6868,18.0712 97.5534,17.4165 97.294,16.9224 97.0346,16.4286 96.6741,16.0523 96.2125,15.7935 95.7513,15.5218 95.1889,15.3486 94.5258,15.274 93.8622,15.1996 93.18,15.172 92.4793,15.1914 91.6504,15.2144 90.6765,15.3619 89.5576,15.6338 88.4382,15.9059 87.3201,16.2859 86.2027,16.7739 L 85.9926,16.7797 85.9604,13.2788 C 86.6222,13.0772 87.5712,12.8493 88.8076,12.5947 90.044,12.3406 91.2681,12.1967 92.4802,12.1628 93.9484,12.1224 95.1878,12.1982 96.1984,12.39 97.2087,12.5824 98.1185,12.9548 98.9283,13.5074 99.7114,14.0486 100.2988,14.7603 100.6901,15.642 101.0811,16.5242 101.2825,17.6071 101.2946,18.8905 L 101.4234,32.904 97.8242,33.0037 Z" />
			<path style="fill:#2d2c2b;" d="M 112.9053,33.0791 C 110.9562,33.1328 109.4325,32.6382 108.3346,31.5945 107.2361,30.5511 106.6764,28.8691 106.6551,26.549 L 106.5503,15.154 104.1263,15.2211 104.0997,12.3341 106.5238,12.267 106.4694,6.3522 110.0687,6.2526 110.123,12.1674 116.6605,11.9863 116.6871,14.8733 110.1496,15.0543 110.2396,24.8364 C 110.2489,25.8805 110.2752,26.6843 110.3186,27.2476 110.3613,27.8116 110.5111,28.3357 110.7676,28.8199 110.9856,29.2442 111.3349,29.557 111.8157,29.7583 112.296,29.9601 112.9458,30.0494 113.7647,30.0267 114.3437,30.0107 114.9033,29.916 115.4439,29.7425 115.9839,29.5691 116.3732,29.4263 116.6121,29.314 L 116.8198,29.3083 116.8482,32.3867 C 116.1787,32.5879 115.4997,32.7495 114.8114,32.8717 114.1229,32.9937 113.4875,33.0627 112.9053,33.0791 Z" />
			<path style="fill:#2d2c2b;" d="M 131.567,27.0247 L 131.5156,21.4355 C 130.6569,21.5322 129.571,21.6622 128.2583,21.8251 126.945,21.9885 125.8861,22.1961 125.0811,22.4479 124.1218,22.752 123.3307,23.1996 122.7078,23.7907 122.0847,24.3822 121.7779,25.1913 121.7876,26.2181 121.798,27.378 122.1524,28.2442 122.8505,28.8166 123.5483,29.3897 124.5636,29.6576 125.8967,29.6204 127.0381,29.5891 128.0683,29.3253 128.9868,28.8289 129.9052,28.333 130.7653,27.7314 131.567,27.0247 Z M 131.5933,29.8831 C 131.3014,30.0989 130.9116,30.3999 130.4238,30.7859 129.936,31.1722 129.4629,31.4816 129.0053,31.7144 128.3698,32.0495 127.7563,32.3108 127.1642,32.4983 126.5718,32.6856 125.7396,32.7939 124.6679,32.8239 123.787,32.848 122.9495,32.7127 122.1552,32.4175 121.3606,32.1223 120.6607,31.6965 120.0558,31.1401 119.4756,30.5949 119.0095,29.9156 118.6577,29.1022 118.3052,28.2888 118.125,27.4249 118.1166,26.5101 118.1036,25.0955 118.4053,23.8823 119.0217,22.871 119.638,21.8599 120.6198,21.0428 121.9674,20.42 123.1628,19.8625 124.5766,19.4605 126.2091,19.2136 127.8411,18.9673 129.6015,18.7692 131.4897,18.619 L 131.4836,17.9511 C 131.4761,17.1356 131.3426,16.4809 131.0832,15.9868 130.8238,15.493 130.4633,15.1167 130.0017,14.8579 129.5406,14.5862 128.9782,14.4131 128.3151,14.3384 127.6514,14.2641 126.9693,14.2365 126.2686,14.2559 125.4396,14.2788 124.4657,14.4263 123.3469,14.6983 122.2275,14.9703 121.1094,15.3504 119.9919,15.8383 L 119.7819,15.8441 119.7497,12.3432 C 120.4114,12.1417 121.3605,11.9137 122.5968,11.6591 123.8332,11.405 125.0574,11.2611 126.2694,11.2273 127.7377,11.1869 128.9771,11.2626 129.9877,11.4545 130.998,11.6469 131.9078,12.0192 132.7176,12.5718 133.5007,13.1131 134.0881,13.8248 134.4794,14.7064 134.8704,15.5887 135.0717,16.6715 135.0838,17.9549 L 135.2127,31.9684 131.6134,32.0681 Z" />
			<path style="fill:#2d2c2b;" d="M 143.9538,31.7264 L 140.3546,31.8261 140.0923,3.3083 143.6916,3.2086 Z" />
			<path style="fill:#2d2c2b;" d="M 165.5815,10.6318 L 154.409,38.9732 150.5996,39.0787 154.3226,30.4599 146.4098,11.1626 150.2593,11.0561 156.2205,26.1044 161.8743,10.7345 Z" />
			<path style="fill:#2d2c2b;" d="M 173.959,31.3887 C 172.5335,31.4279 171.1987,31.2824 169.9547,30.952 168.7106,30.6217 167.6792,30.2612 166.8605,29.8706 L 166.8252,26.022 167.0157,26.0168 C 167.3228,26.2402 167.6847,26.4869 168.1011,26.7565 168.5171,27.0264 169.0696,27.3044 169.759,27.5905 170.3718,27.8428 171.0451,28.0627 171.7787,28.2499 172.512,28.4376 173.2731,28.5202 174.0621,28.4981 174.6343,28.4825 175.2443,28.401 175.8915,28.2532 176.5388,28.106 177.0205,27.9292 177.3372,27.7229 177.7796,27.427 178.0982,27.1158 178.2924,26.7896 178.4863,26.4637 178.5803,25.9802 178.5747,25.3391 178.5668,24.5133 178.3289,23.8973 177.8614,23.4907 177.3933,23.0846 176.5665,22.7559 175.3812,22.5045 174.92,22.4106 174.3188,22.3017 173.5775,22.1787 172.8356,22.0559 172.1516,21.9196 171.5251,21.7694 169.8894,21.3624 168.6977,20.6952 167.9501,19.7681 167.202,18.8416 166.8219,17.7056 166.8098,16.36 166.7925,14.5142 167.504,12.9901 168.9444,11.7883 170.3841,10.5869 172.3067,9.9529 174.7118,9.886 175.8945,9.8535 177.0854,9.9603 178.2845,10.2064 179.4833,10.453 180.4917,10.7775 181.3099,11.1802 L 181.3436,14.8439 181.1531,14.8492 C 180.2308,14.1787 179.2051,13.6574 178.0763,13.2853 176.9473,12.9135 175.8106,12.7436 174.666,12.775 173.4839,12.808 172.4881,13.0752 171.6788,13.5769 170.8694,14.0788 170.4692,14.8149 170.4782,15.7853 170.4861,16.6456 170.7339,17.2809 171.2218,17.6911 171.7095,18.1013 172.4894,18.4269 173.5619,18.6679 174.0985,18.7873 174.6957,18.9023 175.3531,19.0129 176.0102,19.1234 176.7031,19.2542 177.4317,19.4049 179.016,19.7404 180.2105,20.3371 181.0151,21.1952 181.8198,22.0533 182.229,23.2405 182.243,24.7566 182.2511,25.6367 182.0774,26.4763 181.722,27.2752 181.3665,28.0741 180.8414,28.7646 180.1464,29.3465 179.3882,29.9788 178.53,30.467 177.5722,30.8115 176.6139,31.1559 175.4097,31.3482 173.959,31.3887 Z" />
			<path style="fill:#2d2c2b;" d="M 192.2366,30.8826 C 190.2875,30.9363 188.7638,30.4417 187.6659,29.398 186.5674,28.3546 186.0078,26.6726 185.9864,24.3525 L 185.8816,12.9575 183.4576,13.0246 183.4311,10.1376 185.8551,10.0705 185.8007,4.1557 189.4,4.056 189.4544,9.9708 195.9918,9.7898 196.0184,12.6768 189.4809,12.8578 189.5709,22.6399 C 189.5802,23.684 189.6065,24.4878 189.6499,25.0511 189.6927,25.615 189.8424,26.1391 190.0989,26.6234 190.3169,27.0477 190.6662,27.3604 191.147,27.5617 191.6273,27.7636 192.2771,27.8529 193.096,27.8302 193.675,27.8142 194.2347,27.7194 194.7752,27.546 195.3152,27.3726 195.7045,27.2297 195.9434,27.1175 L 196.1512,27.1117 196.1795,30.1902 C 195.51,30.3914 194.831,30.553 194.1427,30.6752 193.4542,30.7972 192.8188,30.8662 192.2366,30.8826 Z" />
		</g>
	</g>
</g>
</svg>