<?xml version="1.0"?>
<svg width="32" height="32" xmlns="http://www.w3.org/2000/svg" xmlns:svg="http://www.w3.org/2000/svg">
 <defs>
  <filter color-interpolation-filters="sRGB" filterUnits="userSpaceOnUse" height="20.53" id="filter0_d_1884_16361" width="5.37" x="7.42" y="6.24">
   <feFlood flood-opacity="0" result="BackgroundImageFix"/>
   <feColorMatrix in="SourceAlpha" result="hardAlpha" type="matrix" values="0 0 0 0 0 0 0 0 0 0 0 0 0 0 0 0 0 0 127 0"/>
   <feOffset dy="0.5"/>
   <feGaussianBlur stdDeviation="0.5"/>
   <feComposite in2="hardAlpha" operator="out"/>
   <feColorMatrix type="matrix" values="0 0 0 0 0 0 0 0 0 0 0 0 0 0 0 0 0 0 0.12 0"/>
   <feBlend in2="BackgroundImageFix"/>
   <feBlend in="SourceGraphic" in2="effect1_dropShadow_1884_16361"/>
  </filter>
  <filter color-interpolation-filters="sRGB" filterUnits="userSpaceOnUse" height="13.79" id="filter1_d_1884_16361" width="5.37" x="13.74" y="12.97">
   <feFlood flood-opacity="0" result="BackgroundImageFix"/>
   <feColorMatrix in="SourceAlpha" result="hardAlpha" type="matrix" values="0 0 0 0 0 0 0 0 0 0 0 0 0 0 0 0 0 0 127 0"/>
   <feOffset dy="0.5"/>
   <feGaussianBlur stdDeviation="0.5"/>
   <feComposite in2="hardAlpha" operator="out"/>
   <feColorMatrix type="matrix" values="0 0 0 0 0 0 0 0 0 0 0 0 0 0 0 0 0 0 0.12 0"/>
   <feBlend in2="BackgroundImageFix"/>
   <feBlend in="SourceGraphic" in2="effect1_dropShadow_1884_16361"/>
  </filter>
  <filter color-interpolation-filters="sRGB" filterUnits="userSpaceOnUse" height="18" id="filter2_d_1884_16361" width="5.37" x="20.05" y="8.76">
   <feFlood flood-opacity="0" result="BackgroundImageFix"/>
   <feColorMatrix in="SourceAlpha" result="hardAlpha" type="matrix" values="0 0 0 0 0 0 0 0 0 0 0 0 0 0 0 0 0 0 127 0"/>
   <feOffset dy="0.5"/>
   <feGaussianBlur stdDeviation="0.5"/>
   <feComposite in2="hardAlpha" operator="out"/>
   <feColorMatrix type="matrix" values="0 0 0 0 0 0 0 0 0 0 0 0 0 0 0 0 0 0 0.12 0"/>
   <feBlend in2="BackgroundImageFix"/>
   <feBlend in="SourceGraphic" in2="effect1_dropShadow_1884_16361"/>
  </filter>
 </defs>
 <g class="layer">
  <title>Layer 1</title>
  <path d="m0.5,8.42c0,-4.65 3.77,-8.42 8.42,-8.42l15.16,0c4.65,0 8.42,3.77 8.42,8.42l0,15.16c0,4.65 -3.77,8.42 -8.42,8.42l-15.16,0c-4.65,0 -8.42,-3.77 -8.42,-8.42l0,-15.16z" fill="#465FFF" id="svg_1"/>
  <g filter="url(#filter0_d_1884_16361)" id="svg_2" transform="matrix(1 0 0 1 0 0)">
   <path d="m8.42,8.42c0,-0.93 0.76,-1.68 1.69,-1.68c0.93,0 1.68,0.75 1.68,1.68l0,15.16c0,0.93 -0.75,1.68 -1.68,1.68c-0.93,0 -1.69,-0.75 -1.69,-1.68l0,-15.16z" fill="white" id="svg_3"/>
  </g>
  <g filter="url(#filter1_d_1884_16361)" id="svg_4">
   <path d="m14.74,15.16c0,-0.93 0.76,-1.69 1.69,-1.69c0.93,0 1.68,0.76 1.68,1.69l0,8.42c0,0.93 -0.75,1.68 -1.68,1.68c-0.93,0 -1.69,-0.75 -1.69,-1.68l0,-8.42z" fill="white" fill-opacity="0.9" id="svg_5"/>
  </g>
  <g filter="url(#filter2_d_1884_16361)" id="svg_6">
   <path d="m21.05,10.95c0,-0.93 0.76,-1.69 1.69,-1.69c0.93,0 1.68,0.76 1.68,1.69l0,12.63c0,0.93 -0.75,1.68 -1.68,1.68c-0.93,0 -1.69,-0.75 -1.69,-1.68l0,-12.63z" fill="white" fill-opacity="0.7" id="svg_7"/>
  </g>
  <rect fill="#465FFF" height="0" id="svg_8" width="0" x="-73.5" y="91.25"/>
  <text fill="#000000" font-family="Sans-serif" font-size="24" id="svg_9" letter-spacing="2" stroke-width="0" text-anchor="middle" transform="matrix(1.08072 0 0 1 -3.1494 0)" x="91.03" xml:space="preserve" y="25.25">Datalyst</text>
 </g>
</svg>